<svg width="72" height="72" viewBox="18 4 36 37" fill="none" xmlns="http://www.w3.org/2000/svg">
  <path d="M43.0468 5.57636C43.2667 5.53237 43.7103 5.44438 43.9303 5.40039C44.1209 7.36167 44.2015 9.33771 44.0366 11.3064C43.7286 11.3027 43.1201 11.2954 42.8158 11.2917C42.7498 9.38172 42.8268 7.47176 43.0468 5.57636Z" fill="url(#paint0_linear_wand)"/>
  <path d="M37.6922 7.0791C39.0413 8.44653 39.9579 10.1549 40.6874 11.9146C40.4162 11.933 39.8699 11.9623 39.5986 11.9806C38.7261 10.4886 37.0581 8.96334 37.6922 7.0791Z" fill="url(#paint1_linear_wand)"/>
  <path d="M45.7832 12.3798C46.1865 10.5615 47.7593 9.43973 49.0753 8.28125C49.1523 8.46822 49.3062 8.84215 49.3832 9.02544C48.2981 10.2499 47.4475 11.8703 45.7832 12.3798Z" fill="url(#paint2_linear_wand)"/>
  <path d="M42.9784 12.861C44.5255 12.586 45.6509 14.551 45.0571 15.8817C44.2579 17.0072 42.1756 17.1832 41.5229 15.8158C40.7824 14.6573 41.82 13.2093 42.9784 12.861ZM42.0802 14.21C42.1682 14.6059 42.2708 14.9981 42.3808 15.3904C42.85 15.6434 43.4183 15.57 43.9315 15.6544C43.8692 15.0715 43.8032 14.4922 43.7372 13.913C43.1837 14.0083 42.6301 14.1073 42.0802 14.21Z" fill="url(#paint3_linear_wand)"/>
  <path d="M46.4761 14.4844C48.3128 14.2058 50.2338 13.7732 52.0484 14.4221C51.8981 14.807 51.7514 15.1919 51.6011 15.5769C49.9257 15.7235 48.2394 15.7492 46.5604 15.6355C46.5384 15.3459 46.4944 14.7703 46.4761 14.4844Z" fill="url(#paint4_linear_wand)"/>
  <path d="M33.5933 14.8294C35.5472 14.5068 37.5342 14.4921 39.5065 14.5875C39.4918 14.8514 39.4625 15.3867 39.4478 15.6506C37.5379 15.9182 35.6059 15.9805 33.6776 15.9695C33.6556 15.6836 33.6153 15.1154 33.5933 14.8294Z" fill="url(#paint5_linear_wand)"/>
  <path d="M39.661 17.582C40.0459 17.6847 40.4052 17.8643 40.7571 18.0586C36.9262 22.3588 32.7946 26.3842 28.8499 30.578C26.7897 32.774 24.8723 35.1055 22.7865 37.2794C22.6068 36.8651 22.4309 36.4582 22.2549 36.0513C27.3982 30.6916 32.4098 25.211 37.4505 19.7559C38.1507 18.997 38.8142 18.1832 39.661 17.582Z" fill="url(#paint6_linear_wand)"/>
  <path d="M46.204 17.6007C47.5091 18.2899 48.4807 19.6829 49.3386 20.8927C50.0168 21.5562 48.774 22.0035 48.3671 21.4719C47.3039 20.4271 46.3178 19.243 45.7275 17.8645C45.8449 17.7985 46.0867 17.6666 46.204 17.6007Z" fill="url(#paint7_linear_wand)"/>
  <path d="M42.9014 18.3155C44.5988 19.6353 43.7042 22.1429 43.6053 23.9758C43.3523 23.9905 42.8427 24.0198 42.5898 24.0308C42.5568 22.1244 42.4945 20.1962 42.9014 18.3155Z" fill="url(#paint8_linear_wand)"/>
  <path d="M19.9513 38.9919C20.2665 37.7088 21.2783 36.8472 22.2535 36.0518C22.4294 36.4587 22.6054 36.8656 22.785 37.2799C22.1472 37.9911 21.5093 38.7023 20.8677 39.4098C20.6367 39.3035 20.1786 39.0945 19.9513 38.9919Z" fill="url(#paint9_linear_wand)"/>

  <defs>
    <linearGradient id="paint0_linear_wand" x1="42.793" y1="8.33611" x2="44.1257" y2="8.33611" gradientUnits="userSpaceOnUse">
      <stop stop-color="#4FFAEE"/><stop offset="0.51" stop-color="#F690FF"/><stop offset="1" stop-color="#6633CC"/>
    </linearGradient>
    <linearGradient id="paint1_linear_wand" x1="37.5518" y1="9.51552" x2="40.6874" y2="9.51552" gradientUnits="userSpaceOnUse">
      <stop stop-color="#4FFAEE"/><stop offset="0.51" stop-color="#F690FF"/><stop offset="1" stop-color="#6633CC"/>
    </linearGradient>
    <linearGradient id="paint2_linear_wand" x1="45.7832" y1="10.3186" x2="49.3832" y2="10.3186" gradientUnits="userSpaceOnUse">
      <stop stop-color="#4FFAEE"/><stop offset="0.51" stop-color="#F690FF"/><stop offset="1" stop-color="#6633CC"/>
    </linearGradient>
    <linearGradient id="paint3_linear_wand" x1="41.2739" y1="14.798" x2="45.2183" y2="14.798" gradientUnits="userSpaceOnUse">
      <stop stop-color="#4FFAEE"/><stop offset="0.51" stop-color="#F690FF"/><stop offset="1" stop-color="#6633CC"/>
    </linearGradient>
    <linearGradient id="paint4_linear_wand" x1="46.4761" y1="14.8899" x2="52.0484" y2="14.8899" gradientUnits="userSpaceOnUse">
      <stop stop-color="#4FFAEE"/><stop offset="0.51" stop-color="#F690FF"/><stop offset="1" stop-color="#6633CC"/>
    </linearGradient>
    <linearGradient id="paint5_linear_wand" x1="33.5933" y1="15.2492" x2="39.5065" y2="15.2492" gradientUnits="userSpaceOnUse">
      <stop stop-color="#4FFAEE"/><stop offset="0.51" stop-color="#F690FF"/><stop offset="1" stop-color="#6633CC"/>
    </linearGradient>
    <linearGradient id="paint6_linear_wand" x1="22.2549" y1="27.3731" x2="40.7571" y2="27.3731" gradientUnits="userSpaceOnUse">
      <stop stop-color="#4FFAEE"/><stop offset="0.51" stop-color="#F690FF"/><stop offset="1" stop-color="#6633CC"/>
    </linearGradient>
    <linearGradient id="paint7_linear_wand" x1="45.7275" y1="19.6417" x2="49.5372" y2="19.6417" gradientUnits="userSpaceOnUse">
      <stop stop-color="#4FFAEE"/><stop offset="0.51" stop-color="#F690FF"/><stop offset="1" stop-color="#6633CC"/>
    </linearGradient>
    <linearGradient id="paint8_linear_wand" x1="42.5654" y1="21.1564" x2="43.9288" y2="21.1564" gradientUnits="userSpaceOnUse">
      <stop stop-color="#4FFAEE"/><stop offset="0.51" stop-color="#F690FF"/><stop offset="1" stop-color="#6633CC"/>
    </linearGradient>
    <linearGradient id="paint9_linear_wand" x1="19.9512" y1="37.721" x2="22.785" y2="37.721" gradientUnits="userSpaceOnUse">
      <stop stop-color="#4FFAEE"/><stop offset="0.51" stop-color="#F690FF"/><stop offset="1" stop-color="#6633CC"/>
    </linearGradient>
  </defs>
</svg>
