<svg width="275" height="120" viewBox="0 0 275 120" fill="none" xmlns="http://www.w3.org/2000/svg">
<g clip-path="url(#clip0)">
<path d="M122.52 113C122.281 113.023 122.042 112.95 121.855 112.799C121.668 112.648 121.548 112.429 121.52 112.19V11.82C121.548 11.5811 121.668 11.3625 121.855 11.2111C122.042 11.0596 122.281 10.9875 122.52 11.01C122.76 10.9848 123 11.056 123.188 11.2079C123.375 11.3598 123.495 11.58 123.52 11.82V112.23C123.485 112.463 123.362 112.673 123.175 112.817C122.989 112.96 122.754 113.026 122.52 113V113Z" fill="black"/>
<path d="M264 38.76H263.24C262.126 38.7732 261.062 39.2264 260.281 40.0207C259.5 40.815 259.065 41.8859 259.07 43V51.21C259.073 52.3248 259.517 53.3931 260.307 54.1805C261.096 54.9678 262.165 55.41 263.28 55.41H264C265.114 55.4074 266.182 54.9644 266.97 54.1776C267.759 53.3908 268.205 52.324 268.21 51.21V43C268.213 42.445 268.106 41.8949 267.895 41.3812C267.685 40.8676 267.376 40.4005 266.985 40.0066C266.594 39.6128 266.129 39.2999 265.616 39.086C265.104 38.8721 264.555 38.7613 264 38.76ZM266.24 51.1C266.24 51.7693 265.975 52.4113 265.503 52.8855C265.03 53.3596 264.389 53.6274 263.72 53.63H263.52C262.852 53.6247 262.212 53.3562 261.74 52.8826C261.269 52.409 261.003 51.7685 261 51.1V43C261.003 42.3298 261.27 41.6878 261.744 41.2139C262.218 40.74 262.86 40.4726 263.53 40.47H263.73C264.064 40.4674 264.395 40.5309 264.704 40.6568C265.014 40.7828 265.295 40.9687 265.532 41.2039C265.769 41.4391 265.957 41.7189 266.085 42.0272C266.214 42.3354 266.28 42.6661 266.28 43L266.24 51.1Z" fill="black"/>
<path d="M239.18 38.76H238.43C237.875 38.7613 237.326 38.8721 236.813 39.086C236.301 39.2999 235.836 39.6128 235.445 40.0066C235.054 40.4005 234.745 40.8676 234.535 41.3812C234.324 41.8949 234.217 42.445 234.22 43V51.21C234.223 52.3248 234.667 53.3931 235.457 54.1805C236.246 54.9678 237.315 55.41 238.43 55.41H239.18C240.295 55.41 241.364 54.9678 242.153 54.1805C242.943 53.3931 243.387 52.3248 243.39 51.21V43C243.393 42.445 243.286 41.8949 243.075 41.3812C242.865 40.8676 242.556 40.4005 242.165 40.0066C241.774 39.6128 241.309 39.2999 240.796 39.086C240.284 38.8721 239.735 38.7613 239.18 38.76ZM241.43 51.1C241.427 51.7702 241.16 52.4122 240.686 52.8861C240.212 53.36 239.57 53.6274 238.9 53.63H238.71C238.04 53.6274 237.398 53.36 236.924 52.8861C236.45 52.4122 236.183 51.7702 236.18 51.1V43C236.183 42.3298 236.45 41.6878 236.924 41.2139C237.398 40.74 238.04 40.4726 238.71 40.47H238.9C239.57 40.4726 240.212 40.74 240.686 41.2139C241.16 41.6878 241.427 42.3298 241.43 43V51.1Z" fill="black"/>
<path d="M189.51 53.33H184C183.956 53.3276 183.914 53.3089 183.882 53.2775C183.851 53.2462 183.832 53.2043 183.83 53.16V47.69C183.832 47.6457 183.851 47.6038 183.882 47.5725C183.914 47.5411 183.956 47.5224 184 47.52H188.78C188.9 47.52 189.016 47.4729 189.102 47.3888C189.188 47.3047 189.237 47.1903 189.24 47.07V46.15C189.237 46.0297 189.188 45.9153 189.102 45.8312C189.016 45.7471 188.9 45.7 188.78 45.7H184C183.957 45.7001 183.915 45.6835 183.883 45.6538C183.852 45.624 183.833 45.5833 183.83 45.54V41C183.832 40.9557 183.851 40.9138 183.882 40.8825C183.914 40.8511 183.956 40.8324 184 40.83H189.37C189.489 40.83 189.604 40.7826 189.688 40.6982C189.773 40.6138 189.82 40.4993 189.82 40.38V39.46C189.82 39.3407 189.773 39.2262 189.688 39.1418C189.604 39.0574 189.489 39.01 189.37 39.01H182.37C182.25 39.01 182.134 39.0571 182.048 39.1412C181.962 39.2253 181.913 39.3397 181.91 39.46V54.7C181.913 54.8203 181.962 54.9347 182.048 55.0188C182.134 55.1029 182.25 55.15 182.37 55.15H189.55C189.67 55.15 189.786 55.1029 189.872 55.0188C189.958 54.9347 190.007 54.8203 190.01 54.7V53.78C190.009 53.7169 189.995 53.6547 189.969 53.5973C189.942 53.5399 189.905 53.4885 189.858 53.4463C189.811 53.4041 189.756 53.372 189.696 53.352C189.636 53.332 189.573 53.3245 189.51 53.33Z" fill="black"/>
<path d="M216.14 53.33H210.87C210.797 53.3274 210.729 53.2968 210.678 53.2445C210.628 53.1923 210.6 53.1226 210.6 53.05V47.8C210.599 47.7637 210.605 47.7275 210.618 47.6936C210.631 47.6597 210.65 47.6287 210.675 47.6026C210.701 47.5764 210.731 47.5557 210.764 47.5415C210.798 47.5273 210.834 47.52 210.87 47.52H215.39C215.552 47.52 215.707 47.4557 215.821 47.3413C215.936 47.2269 216 47.0718 216 46.91V46.31C216 46.1482 215.936 45.9931 215.821 45.8787C215.707 45.7643 215.552 45.7 215.39 45.7H210.87C210.834 45.7 210.798 45.6927 210.764 45.6785C210.731 45.6643 210.701 45.6436 210.675 45.6174C210.65 45.5913 210.631 45.5603 210.618 45.5264C210.605 45.4925 210.599 45.4563 210.6 45.42V41C210.6 40.9566 210.616 40.9148 210.646 40.8832C210.676 40.8516 210.717 40.8326 210.76 40.83H216C216.162 40.83 216.317 40.7657 216.431 40.6513C216.546 40.5369 216.61 40.3818 216.61 40.22V39.46C216.61 39.3406 216.563 39.2262 216.478 39.1418C216.394 39.0574 216.279 39.01 216.16 39.01H209.16C209.1 39.0087 209.04 39.0193 208.985 39.0413C208.929 39.0634 208.878 39.0963 208.835 39.1382C208.792 39.1801 208.758 39.2302 208.735 39.2855C208.712 39.3407 208.7 39.4 208.7 39.46V54.54C208.7 54.7018 208.764 54.8569 208.879 54.9713C208.993 55.0857 209.148 55.15 209.31 55.15H216.18C216.26 55.15 216.339 55.1342 216.413 55.1036C216.487 55.0729 216.555 55.028 216.611 54.9713C216.668 54.9147 216.713 54.8474 216.744 54.7734C216.774 54.6994 216.79 54.6201 216.79 54.54V53.94C216.79 53.8564 216.773 53.7737 216.74 53.6969C216.707 53.6202 216.658 53.5511 216.597 53.4939C216.536 53.4367 216.464 53.3926 216.386 53.3644C216.307 53.3362 216.223 53.3245 216.14 53.33V53.33Z" fill="black"/>
<path d="M229.84 49.35C229.881 48.872 229.801 48.3914 229.607 47.9526C229.413 47.5138 229.111 47.1311 228.73 46.84C228.696 46.8091 228.668 46.7713 228.65 46.7291C228.631 46.6869 228.621 46.6412 228.621 46.595C228.621 46.5488 228.631 46.5031 228.65 46.4609C228.668 46.4187 228.696 46.3809 228.73 46.35C229.077 46.0595 229.349 45.6898 229.523 45.2721C229.697 44.8544 229.768 44.4009 229.73 43.95C229.73 43.43 229.73 42.95 229.73 42.39C229.706 41.9333 229.59 41.4861 229.389 41.0754C229.188 40.6647 228.906 40.2989 228.56 40C227.817 39.3339 226.848 38.9762 225.85 39H222.1C221.981 39 221.866 39.0474 221.782 39.1318C221.697 39.2162 221.65 39.3307 221.65 39.45V54.7C221.65 54.8193 221.697 54.9338 221.782 55.0182C221.866 55.1026 221.981 55.15 222.1 55.15H225.65C226.708 55.1962 227.745 54.8388 228.55 54.15C228.914 53.8476 229.214 53.4764 229.433 53.0577C229.653 52.639 229.788 52.181 229.83 51.71C229.9 50.92 229.84 50.13 229.84 49.35ZM223.75 40.79H226C226.471 40.8258 226.914 41.0272 227.251 41.3585C227.588 41.6898 227.796 42.1296 227.84 42.6C227.87 43.1029 227.87 43.6071 227.84 44.11C227.805 44.4719 227.661 44.8147 227.427 45.0931C227.193 45.3716 226.88 45.5727 226.53 45.67C225.633 45.7638 224.731 45.7939 223.83 45.76C223.71 45.76 223.65 45.76 223.64 45.64V40.9C223.61 40.83 223.63 40.79 223.75 40.79V40.79ZM227.92 51.19C227.933 51.6651 227.782 52.1302 227.492 52.5072C227.203 52.8841 226.792 53.15 226.33 53.26C226.137 53.3042 225.938 53.3244 225.74 53.32H223.74C223.62 53.32 223.57 53.32 223.56 53.2V47.64C223.56 47.55 223.56 47.52 223.74 47.52C224.39 47.52 225.06 47.52 225.74 47.52C226.028 47.5145 226.315 47.5675 226.582 47.6759C226.849 47.7842 227.091 47.9457 227.294 48.1504C227.497 48.3551 227.656 48.5989 227.762 48.867C227.868 49.1351 227.918 49.4219 227.91 49.71C227.91 50.21 227.92 50.7 227.92 51.19Z" fill="black"/>
<path d="M255.41 39H248.33C248.21 39 248.094 39.0471 248.008 39.1312C247.922 39.2153 247.873 39.3297 247.87 39.45V54.7C247.873 54.8203 247.922 54.9347 248.008 55.0188C248.094 55.1029 248.21 55.15 248.33 55.15H249.33C249.449 55.15 249.564 55.1026 249.648 55.0182C249.733 54.9338 249.78 54.8193 249.78 54.7V41C249.782 40.9557 249.801 40.9138 249.832 40.8825C249.864 40.8511 249.906 40.8324 249.95 40.83H255.37C255.489 40.83 255.604 40.7826 255.688 40.6982C255.773 40.6138 255.82 40.4993 255.82 40.38V39.45C255.82 39.3373 255.779 39.2285 255.703 39.1451C255.627 39.0618 255.522 39.01 255.41 39V39Z" fill="black"/>
<path d="M177.52 53.8C177.52 53.55 177.37 53.33 176.88 53.32H176.31C176.268 53.32 176.227 53.3031 176.197 53.2731C176.167 53.2431 176.15 53.2024 176.15 53.16V39.41C176.15 39.2907 176.103 39.1762 176.018 39.0918C175.934 39.0074 175.819 38.96 175.7 38.96H174.7C174.581 38.96 174.466 39.0074 174.382 39.0918C174.297 39.1762 174.25 39.2907 174.25 39.41C174.25 39.41 174.25 49.96 174.25 53.17C174.252 53.1989 174.247 53.2277 174.236 53.2546C174.226 53.2815 174.209 53.3057 174.188 53.3257C174.167 53.3457 174.143 53.3608 174.115 53.3702C174.088 53.3796 174.059 53.3829 174.03 53.38H169.88C169.845 53.3844 169.81 53.3812 169.776 53.3705C169.743 53.3598 169.712 53.3419 169.687 53.318C169.661 53.2942 169.641 53.265 169.627 53.2325C169.614 53.2 169.608 53.165 169.61 53.13V39.41C169.61 39.2907 169.563 39.1762 169.478 39.0918C169.394 39.0074 169.279 38.96 169.16 38.96H168.16C168.1 38.9587 168.04 38.9693 167.985 38.9913C167.929 39.0134 167.878 39.0463 167.835 39.0882C167.792 39.1301 167.758 39.1802 167.735 39.2354C167.712 39.2907 167.7 39.3501 167.7 39.41V54.7C167.7 54.7599 167.712 54.8193 167.735 54.8745C167.758 54.9298 167.792 54.9799 167.835 55.0218C167.878 55.0637 167.929 55.0966 167.985 55.1187C168.04 55.1407 168.1 55.1513 168.16 55.15H175.54C175.565 55.1512 175.59 55.1593 175.611 55.1734C175.632 55.1875 175.649 55.207 175.66 55.23V58.16C175.659 58.2199 175.669 58.2795 175.691 58.3353C175.713 58.391 175.746 58.4418 175.788 58.4847C175.83 58.5275 175.88 58.5616 175.935 58.5848C175.991 58.608 176.05 58.62 176.11 58.62H177.11C177.232 58.62 177.349 58.5715 177.435 58.4853C177.522 58.399 177.57 58.282 177.57 58.16L177.52 53.8Z" fill="black"/>
<path d="M203.53 39H197.43C197.272 39.0268 197.129 39.1111 197.03 39.2366C196.93 39.3621 196.88 39.52 196.89 39.68C196.89 40.34 196.35 50.12 196.27 51.33C196.258 51.6939 196.194 52.0542 196.08 52.4C195.949 52.7897 195.683 53.1196 195.33 53.33C195.151 53.4251 194.959 53.4926 194.76 53.53C194.658 53.5409 194.562 53.5865 194.489 53.6593C194.416 53.7321 194.371 53.8276 194.36 53.93C194.339 54.263 194.339 54.597 194.36 54.93C194.364 54.9878 194.379 55.0443 194.405 55.0963C194.43 55.1482 194.466 55.1946 194.51 55.2327C194.553 55.2708 194.604 55.2999 194.659 55.3183C194.714 55.3367 194.772 55.3441 194.83 55.34C195.137 55.3351 195.442 55.2948 195.74 55.22C196.234 55.0829 196.686 54.8212 197.05 54.46C197.574 53.9129 197.907 53.2115 198 52.46C198.18 51.33 198.64 41.7 198.67 41.05C198.67 40.89 198.67 40.82 198.9 40.83H201.82C201.95 40.83 202.02 40.89 202.03 41.05V54.75C202.03 54.8703 202.077 54.9858 202.161 55.0718C202.245 55.1578 202.36 55.2074 202.48 55.21H203.53C203.65 55.2074 203.765 55.1578 203.849 55.0718C203.933 54.9858 203.98 54.8703 203.98 54.75V39.41C203.97 39.2977 203.918 39.1933 203.835 39.1174C203.752 39.0414 203.643 38.9996 203.53 39V39Z" fill="black"/>
<path d="M188 11H187.24C186.125 11 185.056 11.4422 184.267 12.2295C183.477 13.0169 183.033 14.0852 183.03 15.2V23.41C183.033 24.5257 183.477 25.595 184.266 26.384C185.055 27.173 186.124 27.6174 187.24 27.62H188C189.115 27.6174 190.183 27.1726 190.97 26.3834C191.758 25.5942 192.2 24.5248 192.2 23.41V15.24C192.204 14.6855 192.098 14.1356 191.889 13.622C191.68 13.1084 191.371 12.6412 190.981 12.2472C190.591 11.8532 190.127 11.5402 189.615 11.3262C189.103 11.1122 188.555 11.0013 188 11V11ZM190.24 23.34C190.237 24.0102 189.97 24.6522 189.496 25.1261C189.022 25.6 188.38 25.8674 187.71 25.87H187.52C186.858 25.8649 186.225 25.6019 185.754 25.1368C185.284 24.6718 185.013 24.0415 185 23.38V15.31C185.005 14.6416 185.274 14.0021 185.747 13.5304C186.221 13.0586 186.862 12.7926 187.53 12.79H187.72C188.388 12.7926 189.029 13.0586 189.503 13.5304C189.976 14.0021 190.245 14.6416 190.25 15.31L190.24 23.34Z" fill="black"/>
<path d="M174.52 12.39H174.14V11.47C174.137 11.3488 174.088 11.2333 174.002 11.1476C173.917 11.0618 173.801 11.0125 173.68 11.01H172.68C172.56 11.0126 172.445 11.0622 172.361 11.1482C172.277 11.2342 172.23 11.3497 172.23 11.47V12.39H171.85C170.735 12.39 169.666 12.8322 168.877 13.6195C168.087 14.4069 167.643 15.4752 167.64 16.59V23.31C167.643 24.4257 168.087 25.495 168.876 26.284C169.665 27.073 170.734 27.5174 171.85 27.52H172.23V28.43C172.23 28.5493 172.277 28.6638 172.362 28.7482C172.446 28.8326 172.561 28.88 172.68 28.88H173.68C173.8 28.88 173.916 28.8329 174.002 28.7488C174.088 28.6647 174.137 28.5503 174.14 28.43V27.52H174.52C175.634 27.5147 176.701 27.0692 177.488 26.2805C178.274 25.4918 178.717 24.424 178.72 23.31V16.59C178.717 15.4769 178.274 14.4101 177.487 13.6231C176.7 12.836 175.633 12.3926 174.52 12.39V12.39ZM172.1 25.76C171.431 25.76 170.789 25.4948 170.315 25.0225C169.84 24.5502 169.573 23.9093 169.57 23.24V16.67C169.573 15.9998 169.84 15.3578 170.314 14.8839C170.788 14.41 171.43 14.1426 172.1 14.14H172.2V25.76H172.1ZM176.76 23.24C176.757 23.9093 176.49 24.5502 176.015 25.0225C175.541 25.4948 174.899 25.76 174.23 25.76H174.14V14.14H174.23C174.9 14.1426 175.542 14.41 176.016 14.8839C176.49 15.3578 176.757 15.9998 176.76 16.67V23.24Z" fill="black"/>
<path d="M222 27.92V26.11C222 26.0435 221.987 25.9776 221.96 25.9166C221.933 25.8556 221.894 25.8008 221.846 25.7556C221.797 25.7105 221.739 25.676 221.676 25.6544C221.613 25.6328 221.546 25.6245 221.48 25.63H220.74C220.62 25.63 220.6 25.63 220.6 25.49C220.6 22.58 220.6 13.49 220.6 11.78C220.612 11.6998 220.605 11.6179 220.579 11.541C220.554 11.464 220.511 11.3941 220.453 11.3368C220.396 11.2795 220.326 11.2363 220.249 11.2109C220.172 11.1854 220.09 11.1782 220.01 11.19H214.01C213.94 11.1886 213.87 11.2014 213.806 11.2276C213.741 11.2537 213.682 11.2927 213.632 11.3422C213.583 11.3917 213.544 11.4507 213.518 11.5156C213.491 11.5805 213.479 11.65 213.48 11.72C213.48 12.44 212.83 23.65 212.76 24.45C212.69 25.25 212.46 25.61 212.02 25.63H211.49C211.419 25.6207 211.346 25.6276 211.278 25.6501C211.209 25.6727 211.147 25.7103 211.095 25.7602C211.043 25.8102 211.003 25.8711 210.978 25.9386C210.953 26.0061 210.943 26.0783 210.95 26.15V30.5C210.95 30.6193 210.997 30.7338 211.082 30.8182C211.166 30.9026 211.281 30.95 211.4 30.95H212.4C212.52 30.95 212.636 30.9029 212.722 30.8188C212.808 30.7347 212.857 30.6203 212.86 30.5V27.59C212.86 27.48 212.86 27.46 212.98 27.46H219.87C219.97 27.46 220 27.46 220 27.59V30.5C220 30.6193 220.047 30.7338 220.132 30.8182C220.216 30.9026 220.331 30.95 220.45 30.95H221.5C221.619 30.95 221.734 30.9026 221.818 30.8182C221.903 30.7338 221.95 30.6193 221.95 30.5L222 27.92ZM218.65 25.48C218.65 25.59 218.65 25.63 218.51 25.63H214.36C214.515 25.091 214.619 24.5386 214.67 23.98C214.72 23.23 215.2 14.48 215.27 13.2C215.273 13.1593 215.291 13.1211 215.32 13.0933C215.35 13.0654 215.389 13.0499 215.43 13.05H218.49C218.532 13.05 218.573 13.0669 218.603 13.0969C218.633 13.1269 218.65 13.1676 218.65 13.21V25.48Z" fill="black"/>
<path d="M206 11.22H205C204.88 11.2226 204.765 11.2722 204.681 11.3582C204.597 11.4442 204.55 11.5597 204.55 11.68V17.85C204.547 17.8933 204.528 17.934 204.497 17.9638C204.465 17.9935 204.423 18.0101 204.38 18.01H199.66C199.617 18.0101 199.575 17.9935 199.543 17.9638C199.512 17.934 199.493 17.8933 199.49 17.85V11.68C199.49 11.5597 199.443 11.4442 199.359 11.3582C199.275 11.2722 199.16 11.2226 199.04 11.22H198.04C197.918 11.22 197.801 11.2685 197.715 11.3547C197.628 11.441 197.58 11.558 197.58 11.68V27C197.58 27.0599 197.592 27.1193 197.615 27.1745C197.638 27.2298 197.672 27.2799 197.715 27.3218C197.758 27.3637 197.809 27.3966 197.865 27.4187C197.92 27.4407 197.98 27.4513 198.04 27.45H199.04C199.099 27.45 199.158 27.4384 199.212 27.4157C199.267 27.3931 199.316 27.36 199.358 27.3182C199.4 27.2764 199.433 27.2268 199.456 27.1722C199.478 27.1176 199.49 27.0591 199.49 27V20C199.493 19.9567 199.512 19.916 199.543 19.8862C199.575 19.8565 199.617 19.8399 199.66 19.84H204.38C204.423 19.8399 204.465 19.8565 204.497 19.8862C204.528 19.916 204.547 19.9567 204.55 20V27C204.55 27.0591 204.562 27.1176 204.584 27.1722C204.607 27.2268 204.64 27.2764 204.682 27.3182C204.724 27.36 204.773 27.3931 204.828 27.4157C204.882 27.4384 204.941 27.45 205 27.45H206C206.06 27.4513 206.12 27.4407 206.175 27.4187C206.231 27.3966 206.282 27.3637 206.325 27.3218C206.368 27.2799 206.402 27.2298 206.425 27.1745C206.448 27.1193 206.46 27.0599 206.46 27V11.68C206.46 11.558 206.412 11.441 206.325 11.3547C206.239 11.2685 206.122 11.22 206 11.22V11.22Z" fill="black"/>
<path d="M234.7 68.31H224.7C224.581 68.31 224.466 68.3574 224.382 68.4418C224.297 68.5262 224.25 68.6407 224.25 68.76V69.69C224.25 69.8093 224.297 69.9238 224.382 70.0082C224.466 70.0926 224.581 70.14 224.7 70.14H228.58C228.623 70.1426 228.664 70.1616 228.694 70.1932C228.724 70.2248 228.74 70.2666 228.74 70.31V84.1C228.739 84.1608 228.75 84.2212 228.772 84.2776C228.795 84.3341 228.829 84.3853 228.872 84.4283C228.915 84.4713 228.966 84.5051 229.022 84.5278C229.079 84.5504 229.139 84.5614 229.2 84.56H230.2C230.26 84.56 230.319 84.5481 230.375 84.5248C230.43 84.5016 230.48 84.4675 230.522 84.4247C230.564 84.3818 230.597 84.331 230.619 84.2753C230.641 84.2195 230.651 84.1599 230.65 84.1V70.31C230.652 70.2657 230.671 70.2238 230.702 70.1925C230.734 70.1611 230.776 70.1424 230.82 70.14H234.69C234.809 70.14 234.924 70.0926 235.008 70.0082C235.093 69.9238 235.14 69.8093 235.14 69.69V68.76C235.14 68.6424 235.094 68.5294 235.012 68.4453C234.93 68.3612 234.818 68.3126 234.7 68.31V68.31Z" fill="black"/>
<path d="M176.85 84C175.85 82.48 172.24 76.87 171.74 76.08C171.721 76.054 171.71 76.0225 171.71 75.99C171.71 75.9575 171.721 75.926 171.74 75.9L176.63 68.9C176.67 68.8473 176.693 68.7846 176.699 68.7189C176.704 68.6533 176.691 68.5874 176.661 68.5289C176.631 68.4704 176.584 68.4216 176.528 68.3882C176.471 68.3548 176.406 68.3381 176.34 68.34H175.27C175.02 68.34 174.8 68.34 174.46 68.79C173.23 70.51 170.63 74.2 169.71 75.51C169.704 75.5253 169.694 75.5385 169.681 75.5478C169.667 75.5572 169.651 75.5622 169.635 75.5622C169.619 75.5622 169.603 75.5572 169.589 75.5478C169.576 75.5385 169.566 75.5253 169.56 75.51V68.84C169.56 68.7207 169.513 68.6062 169.428 68.5218C169.344 68.4374 169.229 68.39 169.11 68.39H168.11C168.05 68.3887 167.99 68.3993 167.935 68.4213C167.879 68.4434 167.828 68.4763 167.785 68.5182C167.742 68.5601 167.708 68.6102 167.685 68.6655C167.662 68.7207 167.65 68.7801 167.65 68.84V84.1C167.649 84.1608 167.66 84.2212 167.682 84.2776C167.705 84.3341 167.739 84.3853 167.782 84.4283C167.825 84.4713 167.876 84.5051 167.932 84.5278C167.989 84.5504 168.049 84.5614 168.11 84.56H169.11C169.17 84.56 169.229 84.5481 169.285 84.5248C169.34 84.5016 169.39 84.4675 169.432 84.4247C169.474 84.3818 169.507 84.331 169.529 84.2753C169.551 84.2195 169.561 84.1599 169.56 84.1V76.44C169.566 76.4247 169.576 76.4115 169.589 76.4022C169.603 76.3928 169.619 76.3878 169.635 76.3878C169.651 76.3878 169.667 76.3928 169.681 76.4022C169.694 76.4115 169.704 76.4247 169.71 76.44C170.71 77.93 173.59 82.36 174.71 84.14C174.768 84.2878 174.873 84.4127 175.008 84.4957C175.143 84.5787 175.302 84.6153 175.46 84.6H176.46C176.71 84.6 176.88 84.6 176.91 84.36C176.94 84.12 176.93 84.09 176.85 84Z" fill="black"/>
<path d="M261.18 68.23H255.09C254.931 68.2591 254.788 68.3453 254.689 68.4725C254.589 68.5996 254.54 68.7588 254.55 68.92C254.55 69.58 254.01 79.36 253.93 80.57C253.917 80.9338 253.853 81.294 253.74 81.64C253.609 82.0268 253.342 82.3534 252.99 82.56C252.813 82.6623 252.621 82.7334 252.42 82.77C252.317 82.779 252.22 82.8241 252.147 82.8972C252.074 82.9704 252.029 83.0669 252.02 83.17C251.999 83.503 251.999 83.837 252.02 84.17C252.03 84.2858 252.085 84.3932 252.172 84.4696C252.26 84.5461 252.374 84.5856 252.49 84.58C252.798 84.5767 253.104 84.533 253.4 84.45C253.893 84.3157 254.344 84.0576 254.71 83.7C255.25 83.1585 255.601 82.457 255.71 81.7C255.89 80.57 256.35 70.93 256.38 70.29C256.38 70.13 256.38 70.06 256.61 70.06H259.53C259.65 70.06 259.73 70.13 259.74 70.29V84C259.74 84.1193 259.787 84.2338 259.872 84.3182C259.956 84.4026 260.071 84.45 260.19 84.45H261.19C261.25 84.4513 261.309 84.4407 261.365 84.4187C261.421 84.3966 261.472 84.3637 261.515 84.3218C261.558 84.2799 261.592 84.2298 261.615 84.1745C261.638 84.1193 261.65 84.0599 261.65 84V68.69C261.65 68.6287 261.638 68.5681 261.614 68.5116C261.59 68.4552 261.556 68.404 261.512 68.3611C261.468 68.3183 261.416 68.2846 261.359 68.2621C261.302 68.2396 261.241 68.2287 261.18 68.23V68.23Z" fill="black"/>
<path d="M188.19 68.73C188.147 68.6117 188.07 68.5087 187.968 68.434C187.867 68.3593 187.746 68.3162 187.62 68.31H185.16C185.034 68.3162 184.913 68.3593 184.812 68.434C184.71 68.5087 184.633 68.6117 184.59 68.73C184.01 70.67 182.35 76.15 181.99 77.35C181.942 77.5019 181.918 77.6606 181.92 77.82V84.1C181.919 84.1599 181.929 84.2195 181.951 84.2753C181.973 84.331 182.006 84.3818 182.048 84.4247C182.09 84.4675 182.14 84.5016 182.195 84.5248C182.251 84.5481 182.31 84.56 182.37 84.56H183.37C183.43 84.56 183.489 84.5481 183.545 84.5248C183.6 84.5016 183.65 84.4675 183.692 84.4247C183.734 84.3818 183.767 84.331 183.789 84.2753C183.811 84.2195 183.821 84.1599 183.82 84.1V79.55C183.82 79.5066 183.836 79.4648 183.866 79.4332C183.896 79.4016 183.937 79.3826 183.98 79.38H188.7C188.743 79.3826 188.784 79.4016 188.814 79.4332C188.844 79.4648 188.86 79.5066 188.86 79.55V84.1C188.859 84.1599 188.869 84.2195 188.891 84.2753C188.913 84.331 188.946 84.3818 188.988 84.4247C189.03 84.4675 189.08 84.5016 189.135 84.5248C189.191 84.5481 189.25 84.56 189.31 84.56H190.31C190.37 84.56 190.429 84.5481 190.485 84.5248C190.54 84.5016 190.59 84.4675 190.632 84.4247C190.674 84.3818 190.707 84.331 190.729 84.2753C190.751 84.2195 190.761 84.1599 190.76 84.1V77.82C190.762 77.6606 190.738 77.5019 190.69 77.35C190.43 76.15 188.77 70.67 188.19 68.73ZM183.99 77.37L186.08 70.11C186.098 70.0412 186.138 69.9802 186.194 69.9366C186.25 69.893 186.319 69.8694 186.39 69.8694C186.461 69.8694 186.53 69.893 186.586 69.9366C186.642 69.9802 186.682 70.0412 186.7 70.11L188.79 77.37C188.796 77.3946 188.796 77.4202 188.791 77.4449C188.786 77.4697 188.775 77.493 188.76 77.5131C188.745 77.5332 188.725 77.5497 188.703 77.5612C188.68 77.5728 188.655 77.5792 188.63 77.58H184.15C184.126 77.5778 184.102 77.5704 184.081 77.5582C184.059 77.5461 184.041 77.5294 184.027 77.5095C184.012 77.4895 184.003 77.4667 183.998 77.4427C183.994 77.4186 183.994 77.3938 184 77.37H183.99Z" fill="black"/>
<path d="M244.53 68.73C244.488 68.6109 244.411 68.5072 244.31 68.4324C244.208 68.3575 244.086 68.3148 243.96 68.31H241.51C241.384 68.3148 241.262 68.3575 241.16 68.4324C241.059 68.5072 240.982 68.6109 240.94 68.73C240.36 70.67 238.7 76.15 238.33 77.35C238.286 77.503 238.263 77.661 238.26 77.82V84.1C238.26 84.222 238.308 84.339 238.395 84.4253C238.481 84.5115 238.598 84.56 238.72 84.56H239.72C239.842 84.56 239.959 84.5115 240.045 84.4253C240.132 84.339 240.18 84.222 240.18 84.1V79.55C240.18 79.5066 240.196 79.4648 240.226 79.4332C240.256 79.4016 240.297 79.3826 240.34 79.38H245.05C245.093 79.3826 245.134 79.4016 245.164 79.4332C245.194 79.4648 245.21 79.5066 245.21 79.55V84.1C245.21 84.222 245.258 84.339 245.345 84.4253C245.431 84.5115 245.548 84.56 245.67 84.56H246.67C246.792 84.56 246.909 84.5115 246.995 84.4253C247.082 84.339 247.13 84.222 247.13 84.1V77.82C247.127 77.661 247.104 77.503 247.06 77.35C246.77 76.15 245.11 70.67 244.53 68.73ZM240.34 77.37L242.42 70.11C242.441 70.0429 242.483 69.9842 242.539 69.9425C242.596 69.9008 242.665 69.8784 242.735 69.8784C242.805 69.8784 242.874 69.9008 242.931 69.9425C242.987 69.9842 243.029 70.0429 243.05 70.11L245.13 77.37C245.138 77.3939 245.14 77.4193 245.136 77.4441C245.132 77.469 245.123 77.4926 245.108 77.513C245.094 77.5335 245.074 77.5502 245.052 77.5618C245.03 77.5735 245.005 77.5797 244.98 77.58H240.49C240.465 77.5797 240.44 77.5735 240.418 77.5618C240.396 77.5502 240.376 77.5335 240.362 77.513C240.347 77.4926 240.338 77.469 240.334 77.4441C240.33 77.4193 240.332 77.3939 240.34 77.37Z" fill="black"/>
<path d="M272.71 68.73C272.667 68.6117 272.59 68.5087 272.488 68.434C272.387 68.3593 272.266 68.3162 272.14 68.31H269.68C269.554 68.3162 269.433 68.3593 269.332 68.434C269.23 68.5087 269.153 68.6117 269.11 68.73C268.53 70.67 266.87 76.15 266.51 77.35C266.462 77.5019 266.438 77.6606 266.44 77.82V84.1C266.439 84.1599 266.449 84.2195 266.471 84.2753C266.493 84.331 266.526 84.3818 266.568 84.4247C266.61 84.4675 266.66 84.5016 266.715 84.5248C266.771 84.5481 266.83 84.56 266.89 84.56H267.89C267.951 84.5614 268.011 84.5504 268.068 84.5278C268.124 84.5051 268.175 84.4713 268.218 84.4283C268.261 84.3853 268.295 84.3341 268.318 84.2776C268.34 84.2212 268.351 84.1608 268.35 84.1V79.55C268.35 79.5066 268.366 79.4648 268.396 79.4332C268.426 79.4016 268.467 79.3826 268.51 79.38H273.22C273.264 79.3824 273.306 79.4011 273.338 79.4325C273.369 79.4638 273.388 79.5057 273.39 79.55V84.1C273.389 84.1599 273.399 84.2195 273.421 84.2753C273.443 84.331 273.476 84.3818 273.518 84.4247C273.56 84.4675 273.61 84.5016 273.665 84.5248C273.721 84.5481 273.78 84.56 273.84 84.56H274.84C274.901 84.5614 274.961 84.5504 275.018 84.5278C275.074 84.5051 275.125 84.4713 275.168 84.4283C275.211 84.3853 275.245 84.3341 275.268 84.2776C275.29 84.2212 275.301 84.1608 275.3 84.1V77.82C275.302 77.6606 275.278 77.5019 275.23 77.35C275 76.15 273.29 70.67 272.71 68.73ZM268.51 77.37L270.59 70.11C270.611 70.0429 270.653 69.9842 270.709 69.9425C270.766 69.9008 270.835 69.8784 270.905 69.8784C270.975 69.8784 271.044 69.9008 271.1 69.9425C271.157 69.9842 271.199 70.0429 271.22 70.11L273.31 77.37C273.316 77.3946 273.316 77.4202 273.311 77.4449C273.306 77.4697 273.295 77.493 273.28 77.5131C273.265 77.5332 273.245 77.5497 273.223 77.5612C273.2 77.5728 273.175 77.5792 273.15 77.58H268.67C268.645 77.5792 268.62 77.5728 268.597 77.5612C268.575 77.5497 268.555 77.5332 268.54 77.5131C268.525 77.493 268.514 77.4697 268.509 77.4449C268.504 77.4202 268.504 77.3946 268.51 77.37V77.37Z" fill="black"/>
<path d="M204.66 68.36H196.66C196.539 68.3626 196.423 68.4118 196.338 68.4976C196.252 68.5833 196.203 68.6988 196.2 68.82V84.1C196.2 84.222 196.248 84.339 196.335 84.4253C196.421 84.5115 196.538 84.56 196.66 84.56H197.66C197.72 84.56 197.779 84.5481 197.835 84.5248C197.89 84.5016 197.94 84.4675 197.982 84.4247C198.024 84.3818 198.057 84.331 198.079 84.2753C198.101 84.2195 198.111 84.1599 198.11 84.1V70.31C198.113 70.2667 198.132 70.226 198.163 70.1962C198.195 70.1665 198.237 70.1499 198.28 70.15H203C203.043 70.1499 203.085 70.1665 203.117 70.1962C203.148 70.226 203.167 70.2667 203.17 70.31V84.1C203.169 84.1599 203.179 84.2195 203.201 84.2753C203.223 84.331 203.256 84.3818 203.298 84.4247C203.34 84.4675 203.39 84.5016 203.445 84.5248C203.501 84.5481 203.56 84.56 203.62 84.56H204.62C204.742 84.56 204.859 84.5115 204.945 84.4253C205.032 84.339 205.08 84.222 205.08 84.1V68.82C205.078 68.7053 205.035 68.5952 204.957 68.5104C204.88 68.4257 204.774 68.3722 204.66 68.36V68.36Z" fill="black"/>
<path d="M219.32 68.31H218.32C218.176 68.3161 218.037 68.3612 217.917 68.4405C217.798 68.5198 217.702 68.6302 217.64 68.76C214.39 76.76 213.29 79.44 212.94 80.3C212.94 80.3212 212.932 80.3416 212.917 80.3566C212.902 80.3716 212.881 80.38 212.86 80.38C212.839 80.38 212.818 80.3716 212.803 80.3566C212.788 80.3416 212.78 80.3212 212.78 80.3V68.76C212.78 68.6407 212.733 68.5262 212.648 68.4418C212.564 68.3574 212.449 68.31 212.33 68.31H211.33C211.27 68.3087 211.21 68.3193 211.155 68.3413C211.099 68.3634 211.048 68.3963 211.005 68.4382C210.962 68.4801 210.928 68.5302 210.905 68.5854C210.882 68.6407 210.87 68.7001 210.87 68.76V84.1C210.869 84.1608 210.88 84.2212 210.902 84.2776C210.925 84.3341 210.959 84.3853 211.002 84.4283C211.045 84.4713 211.096 84.5051 211.152 84.5278C211.209 84.5504 211.269 84.5614 211.33 84.56H212.33C212.436 84.5592 212.54 84.5276 212.629 84.469C212.718 84.4105 212.787 84.3274 212.83 84.23C215.29 78.52 217.16 74.09 217.7 72.81C217.706 72.7947 217.716 72.7815 217.729 72.7722C217.743 72.7628 217.759 72.7578 217.775 72.7578C217.791 72.7578 217.807 72.7628 217.821 72.7722C217.834 72.7815 217.844 72.7947 217.85 72.81V84.1C217.85 84.222 217.898 84.339 217.985 84.4253C218.071 84.5115 218.188 84.56 218.31 84.56H219.31C219.432 84.56 219.549 84.5115 219.635 84.4253C219.722 84.339 219.77 84.222 219.77 84.1V68.76C219.767 68.6415 219.719 68.5285 219.635 68.4446C219.552 68.3608 219.439 68.3125 219.32 68.31V68.31Z" fill="black"/>
<path d="M176.83 95.49H175.58C175.33 95.49 175.25 95.65 175.12 95.94C174.6 97.18 173.45 99.87 172.6 101.87C172.589 101.901 172.568 101.927 172.541 101.946C172.515 101.964 172.483 101.974 172.45 101.974C172.417 101.974 172.385 101.964 172.359 101.946C172.332 101.927 172.311 101.901 172.3 101.87C171.44 99.87 170.3 97.18 169.77 95.94C169.64 95.65 169.57 95.49 169.32 95.49H168.07C168.01 95.4887 167.95 95.4993 167.895 95.5213C167.839 95.5434 167.788 95.5763 167.745 95.6182C167.702 95.6601 167.668 95.7102 167.645 95.7655C167.622 95.8207 167.61 95.8801 167.61 95.94V111.23C167.61 111.29 167.622 111.349 167.645 111.405C167.668 111.46 167.702 111.51 167.745 111.552C167.788 111.594 167.839 111.627 167.895 111.649C167.95 111.671 168.01 111.681 168.07 111.68H169C169.12 111.68 169.236 111.633 169.322 111.549C169.408 111.465 169.457 111.35 169.46 111.23V100C169.46 99.9788 169.468 99.9584 169.483 99.9434C169.498 99.9284 169.519 99.92 169.54 99.92C169.561 99.92 169.582 99.9284 169.597 99.9434C169.612 99.9584 169.62 99.9788 169.62 100C170.32 101.73 171.07 103.66 171.48 104.59C171.518 104.678 171.581 104.753 171.661 104.806C171.741 104.859 171.834 104.888 171.93 104.89H173C173.096 104.891 173.191 104.863 173.271 104.809C173.352 104.756 173.414 104.679 173.45 104.59C173.86 103.66 174.61 101.73 175.32 100C175.32 99.92 175.48 100 175.48 100V111.27C175.48 111.389 175.527 111.504 175.612 111.588C175.696 111.673 175.811 111.72 175.93 111.72H176.86C176.979 111.72 177.094 111.673 177.178 111.588C177.263 111.504 177.31 111.389 177.31 111.27V95.94C177.31 95.8783 177.298 95.8172 177.273 95.7606C177.249 95.7039 177.213 95.6529 177.168 95.6107C177.123 95.5685 177.07 95.536 177.011 95.5152C176.953 95.4945 176.892 95.4859 176.83 95.49Z" fill="black"/>
<path d="M206.94 95.43H196.94C196.88 95.43 196.821 95.4419 196.765 95.4652C196.71 95.4884 196.66 95.5225 196.618 95.5653C196.576 95.6082 196.543 95.659 196.521 95.7147C196.499 95.7705 196.489 95.8301 196.49 95.89V96.81C196.49 96.9303 196.537 97.0458 196.621 97.1318C196.705 97.2178 196.82 97.2674 196.94 97.27H200.82C200.862 97.27 200.903 97.2869 200.933 97.3169C200.963 97.3469 200.98 97.3876 200.98 97.43V111.23C200.983 111.35 201.032 111.465 201.118 111.549C201.204 111.633 201.32 111.68 201.44 111.68H202.44C202.559 111.68 202.674 111.633 202.758 111.548C202.843 111.464 202.89 111.349 202.89 111.23V97.43C202.893 97.3867 202.912 97.346 202.943 97.3162C202.975 97.2865 203.017 97.2699 203.06 97.27H206.93C207.051 97.2675 207.167 97.2182 207.252 97.1324C207.338 97.0467 207.387 96.9312 207.39 96.81V95.89C207.39 95.7697 207.343 95.6542 207.259 95.5682C207.175 95.4822 207.06 95.4326 206.94 95.43V95.43Z" fill="black"/>
<path d="M188.77 96.54H188.39V95.62C188.387 95.4997 188.338 95.3853 188.252 95.3012C188.166 95.2171 188.05 95.17 187.93 95.17H186.93C186.811 95.17 186.696 95.2174 186.612 95.3018C186.527 95.3862 186.48 95.5006 186.48 95.62V96.54H186.1C184.984 96.5426 183.915 96.987 183.126 97.776C182.337 98.565 181.893 99.6343 181.89 100.75V107.46C181.893 108.576 182.337 109.645 183.126 110.434C183.915 111.223 184.984 111.667 186.1 111.67H186.48V112.58C186.48 112.7 186.527 112.816 186.611 112.902C186.695 112.988 186.81 113.037 186.93 113.04H187.93C188.051 113.037 188.167 112.988 188.252 112.902C188.338 112.817 188.387 112.701 188.39 112.58V111.67H188.77C189.885 111.667 190.953 111.223 191.74 110.433C192.528 109.644 192.97 108.575 192.97 107.46V100.75C192.97 99.6352 192.528 98.5659 191.74 97.7766C190.953 96.9874 189.885 96.5426 188.77 96.54V96.54ZM186.35 109.92C185.681 109.917 185.04 109.65 184.567 109.175C184.095 108.701 183.83 108.059 183.83 107.39V100.82C183.83 100.151 184.095 99.5087 184.567 99.0345C185.04 98.5604 185.681 98.2926 186.35 98.29H186.45V109.92H186.35ZM191.01 107.39C191.007 108.06 190.74 108.702 190.266 109.176C189.792 109.65 189.15 109.917 188.48 109.92H188.39V98.29H188.48C189.15 98.2926 189.792 98.56 190.266 99.0339C190.74 99.5078 191.007 100.15 191.01 100.82V107.39Z" fill="black"/>
<path d="M219.32 95.43H218.32C218.176 95.4381 218.036 95.4851 217.916 95.5661C217.797 95.6471 217.701 95.759 217.64 95.89C214.39 103.89 213.29 106.56 212.94 107.42C212.94 107.441 212.932 107.462 212.917 107.477C212.902 107.492 212.881 107.5 212.86 107.5C212.839 107.5 212.818 107.492 212.803 107.477C212.788 107.462 212.78 107.441 212.78 107.42V95.92C212.781 95.8601 212.771 95.8005 212.749 95.7447C212.727 95.689 212.694 95.6382 212.652 95.5953C212.61 95.5525 212.56 95.5184 212.505 95.4952C212.449 95.4719 212.39 95.46 212.33 95.46H211.33C211.269 95.4586 211.209 95.4696 211.152 95.4922C211.096 95.5149 211.045 95.5487 211.002 95.5917C210.959 95.6347 210.925 95.6859 210.902 95.7424C210.88 95.7988 210.869 95.8592 210.87 95.92V111.26C210.87 111.32 210.882 111.379 210.905 111.435C210.928 111.49 210.962 111.54 211.005 111.582C211.048 111.624 211.099 111.657 211.155 111.679C211.21 111.701 211.27 111.711 211.33 111.71H212.33C212.435 111.711 212.539 111.682 212.628 111.625C212.717 111.568 212.787 111.486 212.83 111.39C215.29 105.68 217.16 101.24 217.7 99.96C217.706 99.9447 217.716 99.9315 217.729 99.9222C217.743 99.9128 217.759 99.9078 217.775 99.9078C217.791 99.9078 217.807 99.9128 217.821 99.9222C217.834 99.9315 217.844 99.9447 217.85 99.96V111.23C217.853 111.35 217.902 111.465 217.988 111.549C218.074 111.633 218.19 111.68 218.31 111.68H219.31C219.43 111.68 219.546 111.633 219.632 111.549C219.718 111.465 219.767 111.35 219.77 111.23V95.89C219.77 95.7697 219.723 95.6542 219.639 95.5682C219.555 95.4822 219.44 95.4326 219.32 95.43V95.43Z" fill="black"/>
<path d="M51.42 54.91C51.4196 54.2706 51.2659 53.6406 50.9719 53.0728C50.6778 52.505 50.2519 52.016 49.7299 51.6468C49.2078 51.2775 48.6049 51.0388 47.9716 50.9506C47.3383 50.8625 46.693 50.9274 46.09 51.14L23.81 59.53C23.81 59.53 31.81 57.24 34.14 57.53C36.47 57.82 35.36 61.15 35.36 61.15L28.18 101.9C28.18 101.9 41.48 100.19 43.55 99.9L51.42 54.91Z" fill="url(#paint0_linear)"/>
<path d="M59.09 45.48C60.68 46.39 75.85 57.81 69.89 73.19C69.89 73.19 67.47 83.98 59.66 90.81C54.74 95.11 43.55 99.87 43.55 99.87C64.32 96.65 80.99 84.18 83.94 62.69C83.94 62.69 84.33 48.83 72.29 44.44C63.3 41.16 59.09 45.48 59.09 45.48Z" fill="url(#paint1_linear)"/>
<path d="M83.94 62.69C87.7 35.36 62.76 24.69 62.76 24.69L59.09 45.48C59.09 45.48 63.96 41.34 72.29 44.74C83.44 49.28 83.94 62.69 83.94 62.69Z" fill="url(#paint2_linear)"/>
<path d="M22.61 66.15L35.36 61.15C35.36 61.15 36.36 57.83 34.14 57.53C31.92 57.23 23.78 59.53 23.78 59.53L22.61 66.15Z" fill="url(#paint3_linear)"/>
<path d="M43.55 99.87L44.72 93.18C50.3218 92.4122 55.6135 90.1498 60.039 86.6306C64.4645 83.1113 67.8604 78.4651 69.87 73.18C69.87 73.18 67.14 85.18 59.94 90.8C54.9699 94.6396 49.443 97.6982 43.55 99.87V99.87Z" fill="url(#paint4_linear)"/>
<path d="M-0.0899963 43.1L12.63 38.1C12.63 38.1 13.63 34.78 11.41 34.48C9.19 34.18 1.08001 36.48 1.08001 36.48L-0.0899963 43.1Z" fill="url(#paint5_linear)"/>
<path d="M28.64 31.89C28.636 31.0819 28.3874 30.2939 27.9269 29.6299C27.4663 28.9658 26.8155 28.4569 26.06 28.17C25.1741 27.8343 24.1959 27.8343 23.31 28.17L0.999985 36.51C0.999985 36.51 8.99999 34.22 11.33 34.51C13.66 34.8 12.56 38.12 12.56 38.12L0.669983 105.56C0.669983 105.56 14 103.82 16.05 103.5L28.64 31.89Z" fill="url(#paint6_linear)"/>
</g>
<defs>
<linearGradient id="paint0_linear" x1="55.76" y1="57.61" x2="19.83" y2="93.55" gradientUnits="userSpaceOnUse">
<stop stop-color="#1B75BC"/>
<stop offset="1" stop-color="#26247B"/>
</linearGradient>
<linearGradient id="paint1_linear" x1="3422.29" y1="7634.47" x2="5737.27" y2="5984.17" gradientUnits="userSpaceOnUse">
<stop stop-color="#1B75BC"/>
<stop offset="1" stop-color="#26247B"/>
</linearGradient>
<linearGradient id="paint2_linear" x1="67.77" y1="53.35" x2="78.99" y2="33.91" gradientUnits="userSpaceOnUse">
<stop stop-color="#5993CE"/>
<stop offset="1" stop-color="#14489F"/>
</linearGradient>
<linearGradient id="paint3_linear" x1="997.003" y1="900.758" x2="997.003" y2="975.381" gradientUnits="userSpaceOnUse">
<stop stop-color="#5993CE"/>
<stop offset="1" stop-color="#14489F"/>
</linearGradient>
<linearGradient id="paint4_linear" x1="2676.34" y1="3855.69" x2="2821.29" y2="3045.54" gradientUnits="userSpaceOnUse">
<stop stop-color="#5993CE"/>
<stop offset="1" stop-color="#14489F"/>
</linearGradient>
<linearGradient id="paint5_linear" x1="677.949" y1="678.567" x2="677.949" y2="753.017" gradientUnits="userSpaceOnUse">
<stop stop-color="#5993CE"/>
<stop offset="1" stop-color="#14489F"/>
</linearGradient>
<linearGradient id="paint6_linear" x1="2363.02" y1="6245.47" x2="-193.405" y2="7166.41" gradientUnits="userSpaceOnUse">
<stop stop-color="#1B75BC"/>
<stop offset="1" stop-color="#26247B"/>
</linearGradient>
<clipPath id="clip0">
<rect width="275" height="120" fill="white"/>
</clipPath>
</defs>
</svg>
